<svg width="218" height="290" viewBox="0 0 218 290" fill="none" xmlns="http://www.w3.org/2000/svg">
<g filter="url(#filter0_d_8_93)">
<path fill-rule="evenodd" clip-rule="evenodd" d="M27.14 137.321C34.228 140.597 42.12 142.235 50.8161 142.235C58.7975 142.235 65.5578 141.044 71.0972 138.661C76.6365 136.279 81.0739 133.39 84.4094 129.995C87.6067 126.741 89.9283 123.678 91.3743 120.807C91.4881 120.581 91.7179 120.435 91.9709 120.435V120.435C92.3344 120.435 92.629 120.73 92.629 121.093V169.498C92.629 174.879 87.4833 179.212 84.5774 183.741C83.579 185.297 82.9999 187.147 82.9999 189.134V189.764C82.9999 191.75 83.5789 193.601 84.5774 195.157C87.4833 199.686 92.629 204.018 92.629 209.399V226.902C92.629 226.921 92.6136 226.936 92.5946 226.936V226.936C92.5756 226.936 92.5603 226.951 92.5603 226.97V252.061C92.5603 252.08 92.5756 252.095 92.5946 252.095V252.095C92.6136 252.095 92.629 252.11 92.629 252.129V256.589C92.629 256.608 92.6136 256.624 92.5946 256.624V256.624C92.5756 256.624 92.5603 256.639 92.5603 256.658V271.783C92.5603 277.306 97.0374 281.783 102.56 281.783H130.298C135.821 281.783 140.298 277.306 140.298 271.783V266.624C140.298 261.101 135.821 256.624 130.298 256.624H115.978C114.728 256.624 113.714 255.61 113.714 254.359V254.359C113.714 253.109 114.728 252.095 115.978 252.095H158.038C163.561 252.095 168.038 247.618 168.038 242.095V236.936C168.038 231.413 163.561 226.936 158.038 226.936H123.714C118.191 226.936 113.714 222.459 113.714 216.936V209.312C113.714 203.965 118.794 199.655 121.68 195.153C122.677 193.598 123.255 191.749 123.255 189.764V189.134C123.255 187.154 122.68 185.309 121.687 183.756C118.853 179.322 113.935 175.068 113.935 169.806V120.627C113.935 119.993 114.449 119.479 115.083 119.479V119.479C115.48 119.479 115.848 119.685 116.061 120.02C117.586 122.431 119.677 125.407 122.333 128.949C125.192 132.702 129.272 136.067 134.573 139.045C139.874 141.964 146.933 143.423 155.748 143.423C167.184 143.423 177.28 140.534 186.035 134.757C194.791 128.92 201.641 120.7 206.584 110.098C211.528 99.4362 214 86.8388 214 72.3055C214 57.8914 211.528 45.3833 206.584 34.7811C201.641 24.179 194.761 15.9892 185.946 10.2116C177.131 4.43406 166.946 1.54528 155.39 1.54528C146.456 1.54528 139.368 3.03435 134.127 6.01247C128.945 8.93104 124.954 12.2665 122.155 16.019C119.689 19.3422 117.706 22.1348 116.205 24.3969C115.901 24.8542 115.391 25.132 114.842 25.132V25.132C113.946 25.132 113.22 24.406 113.22 23.5104V13.3322C113.22 7.80931 108.743 3.33215 103.22 3.33215H94.1434C93.429 3.33215 92.8499 3.91129 92.8499 4.6257V4.6257C92.8499 5.60672 91.7982 6.23417 90.9175 5.80193C86.7829 3.77259 82.5288 2.37467 78.1553 1.60818C72.4373 0.536059 67.3745 0 62.9669 0C56.0576 0 49.0292 0.952999 41.8817 2.859C34.7938 4.70543 28.2419 7.98137 22.2261 12.6868C18.7227 15.4194 15.6315 18.7909 12.9524 22.8011C9.74927 27.5956 12.5199 33.8026 17.95 35.7419L19.3525 36.2428C24.2197 37.9811 29.5644 35.6236 32.9615 31.7287C34.9206 29.4826 37.2686 27.3046 40.0055 25.1949C45.7235 20.7873 53.6156 18.5835 63.6816 18.5835C73.3903 18.5835 80.6272 21.0256 85.3922 25.9097C90.2167 30.7938 92.629 37.6435 92.629 46.4587V47.1735C92.629 50.5686 91.408 52.951 88.9659 54.321C86.5834 55.6909 82.7714 56.6737 77.5299 57.2693C72.348 57.8054 65.5876 58.6095 57.2489 59.6816C50.8757 60.5155 44.5323 61.6472 38.2187 63.0767C31.9646 64.4466 26.2466 66.5313 21.0647 69.3307C15.8827 72.1302 11.7431 76.0017 8.64587 80.9454C5.54862 85.8295 4 92.2027 4 100.065C4 108.999 6.08469 116.623 10.2541 122.937C14.4234 129.191 20.0521 133.986 27.14 137.321ZM113.714 77.2202V66.6927C114.144 58.6084 115.587 51.396 118.045 45.0557C121.023 37.3126 125.431 31.2967 131.268 27.0082C137.105 22.6602 144.312 20.4861 152.889 20.4861C161.823 20.4861 169.239 22.7793 175.135 27.3656C181.092 31.8924 185.529 38.0571 188.448 45.8598C191.426 53.6029 192.915 62.299 192.915 71.9481C192.915 81.7164 191.396 90.5912 188.358 98.5726C185.38 106.494 180.913 112.808 174.957 117.513C169.06 122.159 161.704 124.482 152.889 124.482C144.431 124.482 137.283 122.278 131.446 117.871C125.609 113.404 121.172 107.239 118.134 99.3767C115.622 92.8261 114.149 85.4406 113.714 77.2202ZM75.1176 118.38C69.3996 121.656 62.3712 123.294 54.0325 123.294C45.6342 123.294 38.6952 121.448 33.2154 117.755C27.7952 114.003 25.0851 108.463 25.0851 101.137C25.0851 95.7765 26.5146 91.5475 29.3736 88.4503C32.2922 85.2935 36.1042 82.9408 40.8096 81.3921C45.5746 79.784 50.697 78.6225 56.1768 77.9077C58.4401 77.6099 61.3885 77.2525 65.0218 76.8356C68.7147 76.3591 72.4969 75.823 76.3684 75.2274C80.2996 74.5722 83.7542 73.8277 86.7323 72.9938V72.9938C88.8995 72.3564 92.629 74.4575 92.629 76.7165V89.3437C92.629 95.0617 91.1399 100.512 88.1618 105.694C85.2432 110.876 80.8952 115.105 75.1176 118.38ZM149.975 256.624H158.038C163.561 256.624 168.038 261.101 168.038 266.624V272.751C168.038 277.739 163.994 281.783 159.006 281.783H157.523C153.354 281.783 149.975 278.404 149.975 274.235V271.526C149.975 268.854 147.809 266.687 145.137 266.687V266.687C142.464 266.687 140.298 264.521 140.298 261.849V261.656C140.298 258.877 142.551 256.624 145.33 256.624H149.975Z" fill="#E2A141"/>
</g>
<defs>
<filter id="filter0_d_8_93" x="0" y="0" width="218" height="289.783" filterUnits="userSpaceOnUse" color-interpolation-filters="sRGB">
<feFlood flood-opacity="0" result="BackgroundImageFix"/>
<feColorMatrix in="SourceAlpha" type="matrix" values="0 0 0 0 0 0 0 0 0 0 0 0 0 0 0 0 0 0 127 0" result="hardAlpha"/>
<feOffset dy="4"/>
<feGaussianBlur stdDeviation="2"/>
<feComposite in2="hardAlpha" operator="out"/>
<feColorMatrix type="matrix" values="0 0 0 0 0 0 0 0 0 0 0 0 0 0 0 0 0 0 0.25 0"/>
<feBlend mode="normal" in2="BackgroundImageFix" result="effect1_dropShadow_8_93"/>
<feBlend mode="normal" in="SourceGraphic" in2="effect1_dropShadow_8_93" result="shape"/>
</filter>
</defs>
</svg>
